<?xml version="1.0" standalone="no"?>
<!DOCTYPE svg PUBLIC "-//W3C//DTD SVG 20010904//EN"
 "http://www.w3.org/TR/2001/REC-SVG-20010904/DTD/svg10.dtd">
<svg version="1.0" xmlns="http://www.w3.org/2000/svg"
 width="2084.000000pt" height="2084.000000pt" viewBox="0 0 2084.000000 2084.000000"
 preserveAspectRatio="xMidYMid meet">

<g transform="translate(0.000000,2084.000000) scale(0.100000,-0.100000)"
fill="#000000" stroke="none">
<path d="M7265 14500 c-444 -89 -802 -403 -944 -828 -45 -134 -62 -247 -63
-402 0 -340 121 -631 366 -876 246 -246 535 -366 881 -366 346 0 635 120 881
366 189 190 304 407 349 660 19 112 20 327 0 437 -44 256 -174 499 -366 684
-176 169 -378 274 -629 325 -129 26 -345 26 -475 0z m338 -422 c12 -6 47 -36
77 -66 108 -108 221 -179 423 -266 49 -21 77 -68 77 -130 0 -86 -51 -589 -66
-651 -43 -180 -181 -353 -344 -433 -113 -56 -183 -72 -306 -72 -318 0 -583
216 -649 527 -20 94 -19 136 14 474 31 315 38 347 89 373 15 8 62 19 105 26
151 23 294 82 416 174 78 59 117 69 164 44z"/>
<path d="M7331 13764 c-16 -20 -20 -36 -16 -63 3 -20 19 -193 35 -386 22 -255
34 -353 44 -364 19 -18 111 -32 141 -21 13 5 27 22 34 42 17 53 181 716 181
732 0 7 -8 23 -17 35 -16 18 -39 23 -172 36 -204 20 -206 20 -230 -11z"/>
<path d="M7385 12815 c-47 -46 -25 -119 42 -139 32 -10 79 18 92 54 28 82 -73
147 -134 85z"/>
<path d="M13339 13644 c-7 -8 -14 -39 -17 -67 -3 -43 1 -62 25 -107 l29 -54
-40 -31 c-56 -42 -86 -104 -86 -176 0 -57 0 -57 -44 -83 -24 -14 -69 -48 -99
-76 l-55 -50 -26 30 c-14 17 -33 44 -43 60 -20 34 -43 46 -54 28 -10 -15 1
-35 57 -103 38 -48 43 -58 33 -76 -10 -19 -12 -19 -28 -5 -10 9 -23 16 -29 16
-19 0 -14 -35 7 -54 16 -15 17 -22 8 -51 -9 -30 -12 -33 -31 -23 -53 28 -146
113 -191 177 -49 68 -67 82 -80 61 -17 -27 136 -203 226 -260 l47 -31 5 -117
c2 -64 8 -126 12 -138 6 -19 1 -22 -51 -32 -31 -7 -77 -12 -101 -12 -30 0 -45
-5 -50 -16 -11 -30 11 -36 98 -23 117 17 133 17 137 -2 2 -12 -8 -19 -35 -26
-28 -6 -38 -14 -38 -28 0 -21 7 -22 66 -10 31 6 38 3 52 -18 16 -25 16 -26
-20 -47 -57 -34 -180 -71 -254 -77 -72 -6 -100 -21 -75 -42 31 -26 240 22 341
78 l50 29 54 -50 c174 -160 427 -177 629 -41 l67 45 75 -26 c41 -15 112 -32
158 -38 71 -10 85 -10 92 2 14 22 -8 40 -49 40 -47 0 -157 24 -205 44 l-38 16
30 38 c17 21 38 54 48 74 17 36 17 36 78 35 55 -2 61 0 61 18 0 17 -8 20 -47
23 -27 2 -48 4 -48 5 0 1 7 34 15 72 8 39 15 96 15 127 l0 57 63 31 c34 17 85
49 113 70 74 56 184 190 184 224 0 33 -29 14 -79 -54 -29 -39 -78 -91 -109
-116 -62 -51 -168 -108 -182 -99 -22 14 -7 43 45 88 55 48 69 77 39 77 -9 0
-37 -18 -62 -41 -41 -35 -48 -38 -58 -24 -9 13 -1 26 48 77 87 90 128 168 88
168 -5 0 -28 -26 -51 -57 -22 -32 -57 -72 -77 -90 l-36 -32 -54 60 c-29 32
-82 78 -118 101 l-64 42 0 53 c0 64 -16 107 -59 155 l-31 35 21 19 c37 33 59
89 59 149 0 60 -12 95 -34 95 -10 0 -13 -20 -12 -79 1 -74 -1 -81 -30 -117
-25 -31 -38 -39 -60 -37 -16 1 -55 4 -88 5 -54 3 -60 6 -82 38 -30 43 -39 87
-26 131 14 53 -1 76 -29 43z"/>
<path d="M4585 12919 c-22 -6 -128 -110 -358 -351 -284 -299 -331 -343 -357
-344 -36 -1 -37 -2 -243 -217 -149 -156 -161 -172 -161 -205 1 -51 30 -121 65
-157 16 -17 29 -42 29 -55 0 -14 3 -35 6 -46 6 -23 828 -740 874 -763 25 -12
34 -12 63 0 22 9 189 177 497 499 255 267 501 524 547 571 73 76 83 91 83 122
0 27 -9 47 -32 74 -77 89 -744 789 -762 800 -31 18 -70 16 -97 -6 -13 -10
-282 -289 -598 -619 -316 -331 -578 -599 -582 -596 -13 7 -21 63 -14 94 4 20
84 110 263 296 141 147 378 394 526 548 147 155 279 287 293 294 14 8 45 12
69 10 l43 -3 -21 22 c-12 13 -38 27 -57 33 -41 11 -36 11 -76 -1z"/>
<path d="M9919 12770 c-302 -53 -603 -206 -748 -378 -195 -234 -366 -819 -485
-1662 -35 -245 -65 -533 -72 -696 l-6 -139 59 -34 c32 -19 127 -80 211 -135
l154 -99 -94 -32 c-334 -115 -577 -254 -758 -435 -191 -192 -237 -316 -191
-521 5 -22 1 -72 -12 -144 -18 -96 -21 -152 -21 -455 0 -356 9 -497 55 -865
69 -547 248 -1074 500 -1474 l72 -114 -38 -96 c-147 -380 -215 -600 -215 -699
l0 -63 38 -16 c199 -84 1133 -230 1957 -308 871 -81 1986 -121 2113 -75 43 16
67 64 89 182 16 80 18 149 16 504 l-1 411 186 6 c187 6 323 23 416 54 200 65
298 437 327 1241 22 643 -37 1690 -131 2314 -28 182 -45 249 -87 336 -48 100
-164 218 -274 280 -225 126 -542 204 -949 233 -85 6 -170 13 -187 15 l-33 5
152 227 c83 125 198 294 256 376 l105 149 -13 36 c-18 52 -147 291 -253 466
-270 451 -584 869 -858 1144 -290 290 -504 420 -773 466 -125 21 -371 19 -507
-5z m1506 -1917 l47 -6 -6 -61 c-22 -201 -78 -477 -127 -628 -67 -203 -192
-408 -346 -569 -116 -120 -200 -186 -312 -242 -80 -40 -89 -42 -170 -42 -271
1 -628 259 -881 634 -105 157 -260 424 -260 448 0 14 249 131 420 196 347 133
780 234 1135 265 123 11 435 14 500 5z m-1928 -3374 c129 -25 172 -47 284
-143 95 -82 420 -443 541 -601 l18 -22 -53 -7 c-28 -4 -72 -14 -97 -21 -25 -8
-115 -24 -200 -36 -85 -11 -171 -23 -190 -26 -29 -4 -43 1 -79 29 -81 61 -86
63 -176 49 -157 -26 -196 -25 -234 1 -50 34 -59 53 -37 77 21 24 118 57 195
68 30 5 53 13 51 18 -4 17 -67 83 -92 96 -15 9 -57 12 -127 11 -57 -1 -122 3
-144 9 -43 11 -97 58 -97 83 0 22 40 45 91 54 l44 7 -42 13 c-42 12 -93 61
-93 88 0 44 176 72 346 55 60 -5 120 -13 133 -17 21 -6 22 -5 12 14 -18 34
-63 51 -167 63 -112 12 -166 31 -194 67 -25 31 -26 68 -2 81 29 18 194 12 309
-10z"/>
<path d="M10133 9827 c6 -20 64 -54 130 -76 84 -29 191 -37 267 -21 69 15 163
66 168 93 5 25 -26 22 -132 -14 -84 -29 -97 -31 -191 -26 -71 3 -121 12 -173
31 -46 16 -72 21 -69 13z"/>
<path d="M16525 12591 c-84 -14 -137 -31 -206 -67 -129 -68 -270 -225 -329
-367 -19 -47 -29 -59 -57 -68 -42 -14 -89 -53 -108 -90 -30 -57 -20 -120 36
-226 56 -107 59 -141 14 -183 -20 -18 -22 -26 -14 -42 11 -20 11 -20 33 1 20
19 25 20 35 7 9 -11 7 -18 -14 -34 -26 -20 -26 -22 -9 -47 l17 -26 29 27 c20
20 31 25 39 17 8 -8 3 -19 -20 -40 l-30 -28 24 -30 24 -29 31 29 c24 23 33 26
43 16 9 -10 5 -18 -21 -39 l-33 -27 25 -25 26 -24 30 29 c24 23 33 26 43 16
10 -10 6 -17 -18 -37 l-30 -24 22 -22 23 -22 24 23 c33 31 56 17 25 -15 -18
-19 -19 -24 -7 -29 9 -4 30 10 55 35 56 55 85 54 151 -5 63 -57 106 -75 180
-75 76 0 140 31 167 82 15 29 33 43 81 63 140 59 294 188 360 300 145 248 89
617 -124 822 -120 116 -343 182 -517 154z m-222 -395 c64 -26 177 -171 177
-226 0 -70 -85 -122 -211 -128 -100 -5 -145 7 -195 50 -28 25 -34 37 -34 69 0
50 29 107 83 167 74 80 115 96 180 68z m391 -415 c60 -42 131 -122 145 -164
24 -71 -28 -145 -145 -209 -99 -53 -160 -41 -200 38 -28 58 -26 191 4 259 53
116 107 137 196 76z m-314 -64 c0 -7 -30 -56 -66 -110 -69 -104 -94 -119 -104
-62 -4 21 -12 31 -30 35 -16 4 -25 13 -25 25 0 15 27 35 105 77 101 55 120 60
120 35z"/>
<path d="M15600 11769 c-26 -13 -80 -25 -129 -29 -74 -8 -88 -12 -113 -38 -99
-98 18 -251 142 -187 17 9 30 14 31 13 7 -23 75 -334 73 -336 -3 -4 -307 90
-317 98 -4 4 0 24 9 45 41 100 -67 201 -163 152 -46 -24 -54 -40 -64 -123 -7
-50 -20 -97 -39 -135 -47 -93 -35 -160 36 -194 82 -39 174 24 174 120 0 14 6
25 13 25 19 0 371 -110 378 -118 6 -7 89 -378 89 -399 0 -8 -14 -13 -38 -13
-69 0 -119 -60 -109 -133 7 -47 38 -84 87 -98 33 -10 45 -8 108 20 54 24 85
31 132 31 72 0 114 18 135 60 32 62 9 136 -51 165 -40 19 -65 19 -111 0 -20
-8 -38 -13 -41 -10 -5 5 -80 338 -78 342 2 2 300 -89 330 -100 12 -5 11 -13
-6 -46 -27 -56 -18 -100 29 -141 33 -29 41 -32 85 -28 32 4 57 13 72 27 26 24
46 88 46 144 0 19 13 59 30 90 38 72 40 124 5 166 -39 46 -84 57 -139 33 -49
-22 -60 -38 -71 -99 -4 -24 -10 -43 -13 -43 -18 1 -385 119 -392 127 -6 6 -90
375 -90 394 0 3 21 6 47 6 40 0 50 4 80 36 52 57 43 139 -19 177 -42 25 -91
25 -148 -1z"/>
<path d="M5330 9904 c-202 -37 -319 -73 -445 -136 -392 -198 -663 -562 -742
-1001 -23 -131 -21 -352 5 -482 55 -274 170 -498 355 -692 203 -212 440 -343
730 -404 149 -32 401 -32 544 -1 530 115 934 508 1064 1037 26 104 37 376 20
496 -73 512 -420 941 -896 1109 -162 57 -244 71 -435 75 -96 2 -186 1 -200 -1z
m294 -514 c93 -29 208 -109 262 -183 65 -88 88 -172 81 -300 -3 -66 -12 -122
-25 -160 -17 -45 -19 -63 -11 -87 29 -83 -67 -189 -173 -190 -49 0 -68 -21
-68 -76 0 -24 -4 -44 -10 -44 -5 0 -10 9 -10 20 0 27 -18 25 -22 -2 -2 -15
-11 -24 -25 -26 -19 -3 -23 1 -23 22 0 14 -4 26 -10 26 -5 0 -10 -13 -10 -30
0 -25 -4 -30 -25 -30 -21 0 -25 5 -25 30 0 17 -4 30 -10 30 -5 0 -10 -13 -10
-30 0 -27 -3 -30 -30 -30 -27 0 -30 3 -30 30 0 17 -4 30 -10 30 -5 0 -10 -13
-10 -29 0 -24 -3 -28 -20 -24 -13 3 -20 14 -20 29 0 13 -4 24 -10 24 -5 0 -10
-9 -10 -20 0 -11 -7 -20 -15 -20 -16 0 -19 6 -29 51 -6 28 -22 37 -118 63 -95
27 -136 85 -116 164 12 49 13 47 -16 127 -34 96 -42 201 -22 294 18 86 51 146
120 219 121 128 285 173 450 122z m-385 -995 c51 -26 63 -93 23 -138 -8 -9
-13 -19 -11 -21 13 -13 235 -139 244 -139 10 0 155 81 233 130 l23 14 -21 26
c-46 59 -8 143 65 143 43 0 82 -34 91 -79 4 -17 21 -48 40 -69 48 -56 57 -85
40 -127 -32 -76 -127 -72 -160 6 l-12 28 -108 -63 c-125 -73 -127 -56 17 -140
86 -50 97 -54 97 -30 0 27 56 74 88 74 61 0 108 -71 81 -122 -6 -13 -25 -38
-40 -55 -15 -18 -32 -49 -38 -69 -24 -86 -104 -114 -155 -53 -31 36 -33 63 -8
104 l18 29 -122 73 c-68 40 -126 73 -130 73 -6 0 -224 -122 -242 -136 -2 -1 6
-17 17 -35 27 -45 26 -82 -3 -116 -19 -22 -33 -28 -64 -28 -49 0 -75 21 -91
74 -6 22 -29 61 -51 87 -48 58 -52 98 -15 138 17 19 34 26 60 26 47 0 70 -13
84 -48 l12 -29 104 60 105 60 -100 58 c-54 33 -101 59 -103 59 -3 0 -10 -14
-17 -30 -15 -37 -37 -50 -85 -50 -80 0 -113 88 -56 153 16 18 40 58 54 89 37
82 77 104 136 73z"/>
<path d="M5224 8896 c-44 -19 -59 -66 -45 -142 26 -140 108 -161 205 -53 108
120 75 208 -79 208 -27 0 -64 -6 -81 -13z"/>
<path d="M5631 8901 c-46 -12 -65 -34 -64 -74 3 -96 129 -216 200 -191 39 13
63 63 70 141 5 63 4 71 -19 98 -22 26 -33 29 -89 31 -35 2 -79 -1 -98 -5z"/>
<path d="M5491 8673 c-38 -145 -38 -153 -1 -133 16 9 25 9 35 0 29 -24 32 1
12 85 -12 47 -24 85 -29 85 -4 0 -12 -17 -17 -37z"/>
<path d="M14947 9345 c-83 -23 -155 -66 -216 -129 -112 -117 -131 -182 -131
-443 l0 -193 -46 -42 c-25 -23 -60 -69 -77 -103 l-32 -60 -3 -395 c-3 -409 -1
-441 39 -521 25 -50 102 -125 158 -154 84 -42 141 -47 521 -43 309 3 361 6
400 21 108 42 195 129 237 237 16 40 18 86 18 435 0 386 0 391 -23 448 -15 37
-45 81 -83 121 l-59 64 0 179 c0 126 -4 196 -15 236 -45 172 -169 297 -340
342 -73 19 -280 19 -348 0z m368 -116 c82 -31 173 -121 203 -202 19 -51 22
-78 22 -225 l0 -167 -421 0 -421 0 4 170 c3 167 4 171 35 237 53 112 148 186
265 208 87 15 245 5 313 -21z"/>
</g>
</svg>
